<?xml version="1.0" encoding="utf-8"?>
<!-- Generator: Adobe Illustrator 25.0.0, SVG Export Plug-In . SVG Version: 6.00 Build 0)  -->
<svg version="1.1" id="Capa_1" xmlns="http://www.w3.org/2000/svg" xmlns:xlink="http://www.w3.org/1999/xlink" x="0px" y="0px"
	 viewBox="0 0 700 700" style="enable-background:new 0 0 700 700;" xml:space="preserve">
<style type="text/css">
	.st0{fill:none;}
	.st1{fill:#575756;}
	.st2{fill:#FBBA00;}
</style>
<desc>BarCode licensed to MEM:TEC-IT Datenverarbeitung GmbH Internal License</desc>
<rect class="st0" width="700" height="700"/>
<g>
	<path class="st1" d="M248.49,498.33c-15.18,0-26.26,10.9-26.26,25.73c0,14.77,11.18,25.8,26.26,25.8
		c12.13,0,21.92-6.89,25.32-17.93h-16.57c-1.6,2.83-4.85,4.54-8.74,4.54c-5.26,0-8.78-2.87-9.87-8.41h35.91
		c0.22-1.5,0.34-2.96,0.34-4.41C274.87,509.45,264.08,498.33,248.49,498.33z M238.92,518.82c1.35-4.81,4.72-7.44,9.58-7.44
		c5.03,0,8.51,2.61,9.97,7.44H238.92z M184.54,485.59h-25.37v62.69h25.37c18.93,0,32.36-13.1,32.36-31.39
		C216.9,498.56,203.51,485.59,184.54,485.59z M183.72,532.45h-7.21V501.4h7.21c9.28,0,15.47,6.18,15.47,15.48
		C199.19,526.13,193,532.45,183.72,532.45z M339.37,498.48c-6.02,0-11.37,2.75-14.85,7.12c-3.01-4.47-7.97-7.12-13.87-7.12
		c-5.57,0-10.64,2.56-14.14,6.63l-2.37-5.19h-11.71v48.36h16.66v-26.52c0-6.01,2.48-9.24,6.99-9.24c3.49,0,5.33,2.59,5.33,7.49
		v28.27h16.22v-26.52c0-6.09,2.35-9.24,6.92-9.24c3.54,0,5.4,2.44,5.4,7.49v28.27h16.66v-30.33
		C356.61,506.55,349.73,498.48,339.37,498.48z M534.44,533.68c-3.51,0-5.61-2.09-5.61-5.55v-15.39h11.73v-12.83h-12.15v-14.14h-3.42
		l-21.67,23.07v3.89h8.85v18.25c0,10.74,6.5,17.28,17.19,17.28h11.46v-14.59H534.44z M481.74,526.79c0,5.05-2.69,8.11-7.14,8.11
		c-4.45,0-7.19-3-7.19-8.11v-26.87h-16.66v27.6c0,13.53,9.57,22.34,23.85,22.34c14.29,0,23.8-8.81,23.8-22.34v-27.6h-16.66V526.79z
		 M366.5,548.27h16.66v-48.36H366.5V548.27z M422.82,498.48c-6.25,0-11.62,2.41-15.22,6.42l-2.29-4.99h-11.69v48.36h16.66v-25.82
		c0-6.16,2.99-9.78,8.18-9.78c4.19,0,6.31,2.79,6.31,8.42v27.18h16.66v-29.49C441.43,506.47,434.05,498.48,422.82,498.48z
		 M374.83,470.46c-6.21,0-11.24,5.03-11.24,11.24c0,6.21,5.03,11.24,11.24,11.24c6.21,0,11.24-5.03,11.24-11.24
		C386.08,475.5,381.04,470.46,374.83,470.46z"/>
	<path class="st2" d="M223.84,150.14H201.6c-6.5,0-11.76,5.26-11.76,11.76v22.24c0,6.5,5.26,11.76,11.76,11.76h34v-34
		C235.6,155.41,230.34,150.14,223.84,150.14z M281.36,241.66h137.28v-34c0-6.49-5.26-11.76-11.76-11.76H235.6v217.04
		c0,6.49,5.27,11.76,11.76,11.76h159.52c6.5,0,11.76-5.27,11.76-11.76v-34H281.36V241.66z M361.78,287.42h-34v45.76h34
		c6.49,0,11.76-5.27,11.76-11.76v-22.24C373.54,292.69,368.28,287.42,361.78,287.42z M498.4,150.14h-22.24
		c-6.5,0-11.76,5.26-11.76,11.76v34h34c6.49,0,11.76-5.27,11.76-11.76V161.9C510.16,155.41,504.89,150.14,498.4,150.14z
		 M452.64,241.66h-34v137.28h34c6.49,0,11.76-5.26,11.76-11.76V253.42C464.4,246.93,459.13,241.66,452.64,241.66z"/>
</g>
</svg>
